<svg xmlns="http://www.w3.org/2000/svg" viewBox="0 0 1200 675" width="1200" height="675"
     role="img" aria-label="GHOST. GPS-denied visual-inertial tracking" font-family="'JetBrains Mono', ui-monospace, monospace">
<defs>
  <linearGradient id="sky" x1="0" y1="0" x2="0" y2="1">
    <stop offset="0%" stop-color="#0C1219"/><stop offset="100%" stop-color="#070A0F"/>
  </linearGradient>
  <radialGradient id="glow" cx="50%" cy="50%">
    <stop offset="0%" stop-color="#22D3EE" stop-opacity="0.30"/>
    <stop offset="70%" stop-color="#22D3EE" stop-opacity="0"/>
  </radialGradient>
  <linearGradient id="accentFade" x1="0" y1="0" x2="1" y2="0">
    <stop offset="0%" stop-color="#22D3EE" stop-opacity="0.9"/>
    <stop offset="100%" stop-color="#22D3EE" stop-opacity="0.05"/>
  </linearGradient>
  <linearGradient id="metal" x1="0" y1="0" x2="1" y2="0">
    <stop offset="0%" stop-color="#1A2230"/><stop offset="45%" stop-color="#39465C"/>
    <stop offset="55%" stop-color="#2A3444"/><stop offset="100%" stop-color="#141B26"/>
  </linearGradient>
  <filter id="soft" x="-60%" y="-60%" width="220%" height="220%">
    <feGaussianBlur stdDeviation="14"/>
  </filter>
  <filter id="soft2" x="-60%" y="-60%" width="220%" height="220%">
    <feGaussianBlur stdDeviation="4"/>
  </filter>
  <pattern id="g" width="30" height="30" patternUnits="userSpaceOnUse">
    <path d="M30 0H0V30" fill="none" stroke="#FFFFFF" stroke-opacity="0.030" stroke-width="1"/>
  </pattern>
  <linearGradient id="vig" x1="0" y1="0" x2="0" y2="1">
    <stop offset="0%" stop-color="#000" stop-opacity="0"/>
    <stop offset="100%" stop-color="#000" stop-opacity="0.45"/>
  </linearGradient>
</defs>
<rect width="1200" height="675" fill="url(#sky)"/>
<rect width="1200" height="675" fill="url(#g)"/><circle cx="760" cy="330" r="330" fill="url(#glow)"/><line x1="0" y1="470.0" x2="1200" y2="470.0" stroke="#2A3444" stroke-opacity="0.30"/><line x1="0" y1="471.6" x2="1200" y2="471.6" stroke="#2A3444" stroke-opacity="0.28"/><line x1="0" y1="476.4" x2="1200" y2="476.4" stroke="#2A3444" stroke-opacity="0.26"/><line x1="0" y1="484.4" x2="1200" y2="484.4" stroke="#2A3444" stroke-opacity="0.24"/><line x1="0" y1="495.6" x2="1200" y2="495.6" stroke="#2A3444" stroke-opacity="0.22"/><line x1="0" y1="510.0" x2="1200" y2="510.0" stroke="#2A3444" stroke-opacity="0.20"/><line x1="0" y1="527.6" x2="1200" y2="527.6" stroke="#2A3444" stroke-opacity="0.18"/><line x1="0" y1="548.4" x2="1200" y2="548.4" stroke="#2A3444" stroke-opacity="0.16"/><line x1="0" y1="572.4" x2="1200" y2="572.4" stroke="#2A3444" stroke-opacity="0.14"/><line x1="0" y1="599.6" x2="1200" y2="599.6" stroke="#2A3444" stroke-opacity="0.12"/><line x1="0" y1="630.0" x2="1200" y2="630.0" stroke="#2A3444" stroke-opacity="0.10"/><line x1="0" y1="663.6" x2="1200" y2="663.6" stroke="#2A3444" stroke-opacity="0.08"/><line x1="-600" y1="470" x2="-4360" y2="675" stroke="#2A3444" stroke-opacity="0.13"/><line x1="-450" y1="470" x2="-3740" y2="675" stroke="#2A3444" stroke-opacity="0.13"/><line x1="-300" y1="470" x2="-3120" y2="675" stroke="#2A3444" stroke-opacity="0.13"/><line x1="-150" y1="470" x2="-2500" y2="675" stroke="#2A3444" stroke-opacity="0.13"/><line x1="0" y1="470" x2="-1880" y2="675" stroke="#2A3444" stroke-opacity="0.13"/><line x1="150" y1="470" x2="-1260" y2="675" stroke="#2A3444" stroke-opacity="0.13"/><line x1="300" y1="470" x2="-640" y2="675" stroke="#2A3444" stroke-opacity="0.13"/><line x1="450" y1="470" x2="-20" y2="675" stroke="#2A3444" stroke-opacity="0.13"/><line x1="600" y1="470" x2="600" y2="675" stroke="#2A3444" stroke-opacity="0.13"/><line x1="750" y1="470" x2="1220" y2="675" stroke="#2A3444" stroke-opacity="0.13"/><line x1="900" y1="470" x2="1840" y2="675" stroke="#2A3444" stroke-opacity="0.13"/><line x1="1050" y1="470" x2="2460" y2="675" stroke="#2A3444" stroke-opacity="0.13"/><line x1="1200" y1="470" x2="3080" y2="675" stroke="#2A3444" stroke-opacity="0.13"/><line x1="1350" y1="470" x2="3700" y2="675" stroke="#2A3444" stroke-opacity="0.13"/><line x1="1500" y1="470" x2="4320" y2="675" stroke="#2A3444" stroke-opacity="0.13"/><line x1="1650" y1="470" x2="4940" y2="675" stroke="#2A3444" stroke-opacity="0.13"/><line x1="1800" y1="470" x2="5560" y2="675" stroke="#2A3444" stroke-opacity="0.13"/><rect x="430" y="545" width="26" height="26" fill="none" stroke="#22D3EE" stroke-opacity="0.75"/><rect x="437" y="552" width="11" height="11" fill="#22D3EE" fill-opacity="0.55"/><rect x="700" y="585" width="34" height="34" fill="none" stroke="#22D3EE" stroke-opacity="0.75"/><rect x="710" y="595" width="15" height="15" fill="#22D3EE" fill-opacity="0.55"/><rect x="960" y="520" width="22" height="22" fill="none" stroke="#22D3EE" stroke-opacity="0.75"/><rect x="966" y="526" width="10" height="10" fill="#22D3EE" fill-opacity="0.55"/><path d="M700 300 L440 552 L742 596 Z" fill="#22D3EE" fill-opacity="0.08" stroke="#22D3EE" stroke-opacity="0.35"/><rect x="800" y="300" width="120" height="300" fill="#070A0F" fill-opacity="0.92" stroke="#FF7A18" stroke-opacity="0.5" stroke-dasharray="6 5"/><text x="860" y="470" font-size="12" fill="#FF7A18" text-anchor="middle" letter-spacing="0.16em" font-weight="400">OCCLUSION</text><g filter="url(#soft2)"><ellipse cx="700" cy="300" rx="150" ry="26" fill="#22D3EE" fill-opacity="0.18"/></g><ellipse cx="608" cy="266" rx="62" ry="12" fill="none" stroke="#3E4C60" stroke-width="2"/><line x1="700" y1="300" x2="608" y2="266" stroke="url(#metal)" stroke-width="9" stroke-linecap="round"/><ellipse cx="792" cy="266" rx="62" ry="12" fill="none" stroke="#3E4C60" stroke-width="2"/><line x1="700" y1="300" x2="792" y2="266" stroke="url(#metal)" stroke-width="9" stroke-linecap="round"/><ellipse cx="608" cy="334" rx="62" ry="12" fill="none" stroke="#3E4C60" stroke-width="2"/><line x1="700" y1="300" x2="608" y2="334" stroke="url(#metal)" stroke-width="9" stroke-linecap="round"/><ellipse cx="792" cy="334" rx="62" ry="12" fill="none" stroke="#3E4C60" stroke-width="2"/><line x1="700" y1="300" x2="792" y2="334" stroke="url(#metal)" stroke-width="9" stroke-linecap="round"/><rect x="662" y="278" width="76" height="44" rx="8" fill="url(#metal)" stroke="#3E4C60"/><circle cx="700" cy="300" r="9" fill="#22D3EE"/><circle cx="700" cy="300" r="16" fill="none" stroke="#22D3EE" stroke-opacity="0.5"/><path d="M120 400 C 300 250, 460 470, 700 300" fill="none" stroke="#22D3EE" stroke-width="2" stroke-opacity="0.55" stroke-dasharray="2 8" stroke-linecap="round"/>
<rect width="1200" height="675" fill="url(#vig)"/>
<rect x="0" y="671" width="1200" height="4" fill="#22D3EE" opacity="0.85"/>
<text x="48" y="72" font-size="16" fill="#22D3EE" letter-spacing="0.22em">PRJ-01 / GHOST</text>
<text x="48" y="104" font-size="15" fill="#4A5768" letter-spacing="0.14em">GPS-DENIED VISUAL-INERTIAL STATE ESTIMATION</text>
</svg>
